<?xml version="1.0" encoding="UTF-8"?>
<svg width="1324px" height="426px" viewBox="0 0 1324 426" version="1.1" xmlns="http://www.w3.org/2000/svg" xmlns:xlink="http://www.w3.org/1999/xlink">
    <!-- Generator: Sketch 52.3 (67297) - http://www.bohemiancoding.com/sketch -->
    <title>domain-diagram</title>
    <desc>Created with Sketch.</desc>
    <g id="Page-1" stroke="none" stroke-width="1" fill="none" fill-rule="evenodd">
        <g id="domain-diagram">
            <rect id="Rectangle" fill="#FFFFFF" fill-rule="nonzero" x="0" y="0" width="1324" height="426"></rect>
            <text id="https://www.github.c" font-family="SerifaStd-Bold, Serifa Std" font-size="96" font-weight="bold">
                <tspan x="80.092" y="173" fill="#424242">https</tspan>
                <tspan x="320.092" y="173" fill="#9E9E9E">://</tspan>
                <tspan x="421.468" y="173" fill="#424242">www</tspan>
                <tspan x="677.5" y="173" fill="#9E9E9E">.</tspan>
                <tspan x="704.188" y="173" fill="#424242">github</tspan>
                <tspan x="1008.124" y="173" fill="#9E9E9E">.</tspan>
                <tspan x="1034.812" y="173" fill="#424242">com</tspan>
            </text>
            <g id="Group" stroke-width="1" fill-rule="evenodd" transform="translate(431.000000, 204.000000)">
                <text id="Subdomain" font-family="HelveticaNeue-Bold, Helvetica Neue" font-size="26" font-weight="bold" fill="#212121">
                    <tspan x="47.722" y="54">Subdomain</tspan>
                </text>
                <path d="M111,125 L111,121.541648 L113.578947,121.541648 C115.789474,121.541648 116.065789,119.651082 116.065789,118.175518 L116.065789,12.9872521 C116.065789,8.4683386 119.243421,7.73055681 120.532895,7.54611136 L120.532895,7.45388864 C119.243421,7.26944319 116.065789,6.5316614 116.065789,2.01274792 L116.065789,-103.175518 C116.065789,-104.651082 115.789474,-106.541648 113.578947,-106.541648 L111,-106.541648 L111,-110 L115.006579,-110 C117.078947,-110 120.671053,-107.9711 120.671053,-103.774966 L120.671053,1.41330022 C120.671053,4.50276147 123.434211,5.5633228 125,5.5633228 L125,9.48278857 C123.434211,9.48278857 120.671053,10.5433499 120.671053,13.6328111 L120.671053,118.774966 C120.671053,122.9711 117.078947,125 115.006579,125 L111,125 Z" id="}" fill="#23A9F6" transform="translate(118.000000, 7.500000) rotate(-270.000000) translate(-118.000000, -7.500000) "></path>
            </g>
            <text id="Protocol" font-family="HelveticaNeue-Bold, Helvetica Neue" font-size="26" font-weight="bold" fill="#212121">
                <tspan x="146.051" y="258">Protocol</tspan>
            </text>
            <path d="M192,320 L192,316.54399 L194.578947,316.54399 C196.789474,316.54399 197.065789,314.654704 197.065789,313.18014 L197.065789,216.483536 C197.065789,211.967683 200.243421,211.230401 201.532895,211.04608 L201.532895,210.95392 C200.243421,210.769599 197.065789,210.032317 197.065789,205.516464 L197.065789,108.81986 C197.065789,107.345296 196.789474,105.45601 194.578947,105.45601 L192,105.45601 L192,102 L196.006579,102 C198.078947,102 201.671053,104.027526 201.671053,108.220818 L201.671053,204.917422 C201.671053,208.004791 204.434211,209.064634 206,209.064634 L206,212.981446 C204.434211,212.981446 201.671053,214.041289 201.671053,217.128658 L201.671053,313.779182 C201.671053,317.972474 198.078947,320 196.006579,320 L192,320 Z" id="}-copy" fill="#23A9F6" fill-rule="evenodd" transform="translate(199.000000, 211.000000) rotate(-270.000000) translate(-199.000000, -211.000000) "></path>
            <text id="Top-Level-Domain" font-family="HelveticaNeue-Bold, Helvetica Neue" font-size="26" font-weight="bold" fill="#212121">
                <tspan x="1016.64" y="258">Top-Level Domain</tspan>
            </text>
            <text id="Second-Level-Domain" font-family="HelveticaNeue-Bold, Helvetica Neue" font-size="26" font-weight="bold" fill="#212121">
                <tspan x="720.513" y="258">Second-Level Domain</tspan>
            </text>
            <path d="M850,354 L850,350.543994 L852.578947,350.543994 C854.789474,350.543994 855.065789,348.65471 855.065789,347.180147 L855.065789,216.48353 C855.065789,211.967682 858.243421,211.2304 859.532895,211.04608 L859.532895,210.95392 C858.243421,210.7696 855.065789,210.032318 855.065789,205.51647 L855.065789,74.8198526 C855.065789,73.3452899 854.789474,71.4560064 852.578947,71.4560064 L850,71.4560064 L850,68 L854.006579,68 C856.078947,68 859.671053,70.0275238 859.671053,74.2208115 L859.671053,204.917429 C859.671053,208.004794 862.434211,209.064636 864,209.064636 L864,212.981444 C862.434211,212.981444 859.671053,214.041286 859.671053,217.128651 L859.671053,347.779188 C859.671053,351.972476 856.078947,354 854.006579,354 L850,354 Z" id="}" fill="#23A9F6" fill-rule="evenodd" transform="translate(857.000000, 211.000000) rotate(-270.000000) translate(-857.000000, -211.000000) "></path>
            <path d="M1123,300 L1123,296.54399 L1125.57895,296.54399 C1127.78947,296.54399 1128.06579,294.654704 1128.06579,293.18014 L1128.06579,216.483536 C1128.06579,211.967683 1131.24342,211.230401 1132.53289,211.04608 L1132.53289,210.95392 C1131.24342,210.769599 1128.06579,210.032317 1128.06579,205.516464 L1128.06579,128.81986 C1128.06579,127.345296 1127.78947,125.45601 1125.57895,125.45601 L1123,125.45601 L1123,122 L1127.00658,122 C1129.07895,122 1132.67105,124.027526 1132.67105,128.220818 L1132.67105,204.917422 C1132.67105,208.004791 1135.43421,209.064634 1137,209.064634 L1137,212.981446 C1135.43421,212.981446 1132.67105,214.041289 1132.67105,217.128658 L1132.67105,293.779182 C1132.67105,297.972474 1129.07895,300 1127.00658,300 L1123,300 Z" id="}" fill="#23A9F6" fill-rule="evenodd" transform="translate(1130.000000, 211.000000) rotate(-270.000000) translate(-1130.000000, -211.000000) "></path>
            <text id="Root-Domain" font-family="HelveticaNeue-Bold, Helvetica Neue" font-size="26" font-weight="bold" fill="#212121">
                <tspan x="890.659" y="345">Root Domain</tspan>
            </text>
            <path d="M960,542 L960,538.545169 L962.578947,538.545169 C964.789474,538.545169 965.065789,536.656529 965.065789,535.182468 L965.065789,296.58383 C965.065789,292.069518 968.243421,291.332488 969.532895,291.14823 L969.532895,291.056101 C968.243421,290.871843 965.065789,290.134813 965.065789,285.620501 L965.065789,59.8175325 C965.065789,58.3434714 964.789474,56.4548306 962.578947,56.4548306 L960,56.4548306 L960,53 L964.006579,53 C966.078947,53 969.671053,55.026834 969.671053,59.2186951 L969.671053,285.021664 C969.671053,288.107979 972.434211,289.16746 974,289.16746 L974,293.082935 C972.434211,293.082935 969.671053,294.142416 969.671053,297.228732 L969.671053,535.781305 C969.671053,539.973166 966.078947,542 964.006579,542 L960,542 Z" id="}" fill="#23A9F6" fill-rule="evenodd" transform="translate(967.000000, 297.500000) rotate(-270.000000) translate(-967.000000, -297.500000) "></path>
        </g>
    </g>
</svg>