<?xml version="1.0" encoding="UTF-8"?>
<svg width="1324px" height="426px" viewBox="0 0 1324 426" version="1.1" xmlns="http://www.w3.org/2000/svg" xmlns:xlink="http://www.w3.org/1999/xlink">
    <!-- Generator: Sketch 52.3 (67297) - http://www.bohemiancoding.com/sketch -->
    <title>domain-diagram</title>
    <desc>Created with Sketch.</desc>
    <g id="Page-1" stroke="none" stroke-width="1" fill="none" fill-rule="evenodd">
        <g id="domain-diagram">
            <rect id="Rectangle" fill="#FBFBFB" fill-rule="nonzero" x="0" y="0" width="1324" height="426"></rect>
            <text id="https://www.github.c" font-family="SerifaStd-Bold, Serifa Std" font-size="96" font-weight="bold">
                <tspan x="80.092" y="173" fill="#424242">https</tspan>
                <tspan x="320.092" y="173" fill="#9E9E9E">://</tspan>
                <tspan x="421.468" y="173" fill="#424242">www</tspan>
                <tspan x="677.5" y="173" fill="#9E9E9E">.</tspan>
                <tspan x="704.188" y="173" fill="#424242">github</tspan>
                <tspan x="1008.124" y="173" fill="#9E9E9E">.</tspan>
                <tspan x="1034.812" y="173" fill="#424242">com</tspan>
            </text>
            <text id="Subdomain" font-family="HelveticaNeue-Bold, Helvetica Neue" font-size="26" font-weight="bold" fill="#212121">
                <tspan x="471.722" y="258">Subdomain</tspan>
            </text>
            <text id="Protocol" font-family="HelveticaNeue-Bold, Helvetica Neue" font-size="26" font-weight="bold" fill="#212121">
                <tspan x="147.051" y="258">Protocol</tspan>
            </text>
            <text id="Top-Level-Domain" font-family="HelveticaNeue-Bold, Helvetica Neue" font-size="26" font-weight="bold" fill="#212121">
                <tspan x="1016.64" y="258">Top-Level Domain</tspan>
            </text>
            <text id="Second-Level-Domain" font-family="HelveticaNeue-Bold, Helvetica Neue" font-size="26" font-weight="bold" fill="#212121">
                <tspan x="720.513" y="258">Second-Level Domain</tspan>
            </text>
            <path d="M852,346.312 L852,343.612 L854.016,343.612 C855.744,343.612 855.96,342.136 855.96,340.984 L855.96,215.44 C855.96,211.912 858.444,211.336 859.452,211.192 L859.452,211.12 C858.444,210.976 855.96,210.4 855.96,206.872 L855.96,81.328 C855.96,80.176 855.744,78.7 854.016,78.7 L852,78.7 L852,76 L855.132,76 C856.752,76 859.56,77.584 859.56,80.86 L859.56,206.404 C859.56,208.816 861.72,209.644 862.944,209.644 L862.944,212.704 C861.72,212.704 859.56,213.532 859.56,215.944 L859.56,341.452 C859.56,344.728 856.752,346.312 855.132,346.312 L852,346.312 Z" id="}" fill="#23A9F6" fill-rule="evenodd" transform="translate(857.472000, 211.156000) rotate(-270.000000) translate(-857.472000, -211.156000) "></path>
            <path d="M1125,296.312 L1125,293.612 L1127.016,293.612 C1128.744,293.612 1128.96,292.136 1128.96,290.984 L1128.96,215.44 C1128.96,211.912 1131.444,211.336 1132.452,211.192 L1132.452,211.12 C1131.444,210.976 1128.96,210.4 1128.96,206.872 L1128.96,131.328 C1128.96,130.176 1128.744,128.7 1127.016,128.7 L1125,128.7 L1125,126 L1128.132,126 C1129.752,126 1132.56,127.584 1132.56,130.86 L1132.56,206.404 C1132.56,208.816 1134.72,209.644 1135.944,209.644 L1135.944,212.704 C1134.72,212.704 1132.56,213.532 1132.56,215.944 L1132.56,291.452 C1132.56,294.728 1129.752,296.312 1128.132,296.312 L1125,296.312 Z" id="}" fill="#23A9F6" fill-rule="evenodd" transform="translate(1130.472000, 211.156000) rotate(-270.000000) translate(-1130.472000, -211.156000) "></path>
            <path d="M537,326.312 L537,323.612 L539.016,323.612 C540.744,323.612 540.96,322.136 540.96,320.984 L540.96,215.44 C540.96,211.912 543.444,211.336 544.452,211.192 L544.452,211.12 C543.444,210.976 540.96,210.4 540.96,206.872 L540.96,101.328 C540.96,100.176 540.744,98.7 539.016,98.7 L537,98.7 L537,96 L540.132,96 C541.752,96 544.56,97.584 544.56,100.86 L544.56,206.404 C544.56,208.816 546.72,209.644 547.944,209.644 L547.944,212.704 C546.72,212.704 544.56,213.532 544.56,215.944 L544.56,321.452 C544.56,324.728 541.752,326.312 540.132,326.312 L537,326.312 Z" id="}" fill="#23A9F6" fill-rule="evenodd" transform="translate(542.472000, 211.156000) rotate(-270.000000) translate(-542.472000, -211.156000) "></path>
            <path d="M195,296.312 L195,293.612 L197.016,293.612 C198.744,293.612 198.96,292.136 198.96,290.984 L198.96,215.44 C198.96,211.912 201.444,211.336 202.452,211.192 L202.452,211.12 C201.444,210.976 198.96,210.4 198.96,206.872 L198.96,131.328 C198.96,130.176 198.744,128.7 197.016,128.7 L195,128.7 L195,126 L198.132,126 C199.752,126 202.56,127.584 202.56,130.86 L202.56,206.404 C202.56,208.816 204.72,209.644 205.944,209.644 L205.944,212.704 C204.72,212.704 202.56,213.532 202.56,215.944 L202.56,291.452 C202.56,294.728 199.752,296.312 198.132,296.312 L195,296.312 Z" id="}-copy" fill="#23A9F6" fill-rule="evenodd" transform="translate(200.472000, 211.156000) rotate(-270.000000) translate(-200.472000, -211.156000) "></path>
            <text id="Root-Domain" font-family="HelveticaNeue-Bold, Helvetica Neue" font-size="26" font-weight="bold" fill="#212121">
                <tspan x="896.659" y="345">Root Domain</tspan>
            </text>
            <path d="M967.684,527.628 L967.684,524.928 L969.7,524.928 C971.428,524.928 971.644,523.452 971.644,522.3 L971.644,296.756 C971.644,293.228 974.128,292.652 975.136,292.508 L975.136,292.436 C974.128,292.292 971.644,291.716 971.644,288.188 L971.644,72.644 C971.644,71.492 971.428,70.016 969.7,70.016 L967.684,70.016 L967.684,67.316 L970.816,67.316 C972.436,67.316 975.244,68.9 975.244,72.176 L975.244,287.72 C975.244,290.132 977.404,290.96 978.628,290.96 L978.628,294.02 C977.404,294.02 975.244,294.848 975.244,297.26 L975.244,522.768 C975.244,526.044 972.436,527.628 970.816,527.628 L967.684,527.628 Z" id="}" fill="#23A9F6" fill-rule="evenodd" transform="translate(973.156000, 297.472000) rotate(-270.000000) translate(-973.156000, -297.472000) "></path>
        </g>
    </g>
</svg>